# xmcd
#
# Track frame offsets:
#	150
#	16555
#	30262
#	47245
#	61362
#	73762
#	92952
#	111920
#	126710
#	142840
#	172842
#	181602
#	199577
#	215837
#
# Disc length: 3039 seconds
#
# Revision: 0
# Processed by: cddbd v1.5.1PL0 Copyright (c) Steve Scherf et al.
# Submitted via: audiograbber 1.81.02
#
DISCID=c10bdd0e
DTITLE=Various Artist - Rockin' Them Blues
DYEAR=1997
DGENRE=Blues
TTITLE0=A.Collins and The Icebreakers - Jealous Man
TTITLE1=K. Taylor - Spoonful
TTITLE2=J. "Thunderbid" Davis - I'm Ready Now
TTITLE3=E. Spencer - Picking Up The Pieces
TTITLE4=A. Funderburgh and The Rockets - Shedding Tears Of Laughter
TTITLE5=F. Robinson - I Hear Some Blues Downstairs
TTITLE6=T. Ellis - Drivin' Woman
TTITLE7=D. Williams - President For The Blues
TTITLE8=D. Nulisch and The Texas Heat - Love and War
TTITLE9=C. Carter - Grandpa Can't Fly His Kite
TTITLE10=Hubert Sumlin's Blues Party - Hidden Charms
TTITLE11=S. Hall - Pump Up Your Love
TTITLE12=B. Radcliff - R M Blues
TTITLE13=Earl King - I'll Take You Back Home
EXTD=
EXTT0=Vocal By A.C. Redd
EXTT1=
EXTT2=
EXTT3=
EXTT4=
EXTT5=
EXTT6=
EXTT7=
EXTT8=
EXTT9=
EXTT10=
EXTT11=
EXTT12=
EXTT13=
PLAYORDER=
